<svg width="26" height="18" viewBox="0 0 26 18" fill="none" xmlns="http://www.w3.org/2000/svg">
<path d="M18.0292 6.94565C18.0292 10.7816 15.0128 13.8913 11.292 13.8913C7.5711 13.8913 4.55474 10.7816 4.55474 6.94565C4.55474 3.10967 7.5711 0 11.292 0C15.0128 0 18.0292 3.10967 18.0292 6.94565Z" fill="#565656"/>
<path d="M11.3869 12.1304C11.3869 15.3721 8.83783 18 5.69343 18C2.54904 18 0 15.3721 0 12.1304C0 8.88876 2.54904 6.26087 5.69343 6.26087C8.83783 6.26087 11.3869 8.88876 11.3869 12.1304Z" fill="#565656"/>
<path d="M22.5839 9.09783C22.5839 11.7452 20.5022 13.8913 17.9343 13.8913C15.3664 13.8913 13.2847 11.7452 13.2847 9.09783C13.2847 6.45046 15.3664 4.30435 17.9343 4.30435C20.5022 4.30435 22.5839 6.45046 22.5839 9.09783Z" fill="#565656"/>
<path d="M26 13.2065C26 15.8539 23.9183 18 21.3504 18C18.7824 18 16.7007 15.8539 16.7007 13.2065C16.7007 10.5592 18.7824 8.41304 21.3504 8.41304C23.9183 8.41304 26 10.5592 26 13.2065Z" fill="#565656"/>
<path d="M5.69343 7.04348H21.4453V18H5.69343V7.04348Z" fill="#565656"/>
</svg>
